<svg xmlns="http://www.w3.org/2000/svg" viewBox="0 0 104.14 71.16"><defs><style>.cls-1{isolation:isolate;}.cls-2{fill:#e6e7e7;}.cls-3{mix-blend-mode:multiply;}.cls-4{fill:#f2f2f2;}.cls-5{fill:#fff;}.cls-6{fill:#febd1f;}.cls-7{fill:#ffd366;}.cls-8{fill:#fdc20f;}.cls-9{fill:#668f3d;}.cls-10{fill:#8fc640;}.cls-11{fill:#bb2026;}.cls-12{fill:#ef4237;}.cls-13{fill:#231f20;}.cls-14{fill:#24295f;}</style></defs><g class="cls-1"><g id="Layer_2" data-name="Layer 2"><g id="Layer_1-2" data-name="Layer 1"><polygon class="cls-2" points="42.7 0 0 71.05 104.14 71.05 104.14 0 42.7 0"/><g class="cls-3"><polygon class="cls-4" points="0 71.05 16.93 0 42.7 0 104.14 31 0 71.05"/></g><g class="cls-3"><polygon class="cls-4" points="0 71.05 104.14 56.25 104.14 71.05 0 71.05"/></g><rect class="cls-5" x="16.87" y="16.1" width="37.26" height="25.74"/><rect class="cls-6" x="20.28" y="19.12" width="30.42" height="19.68"/><polygon class="cls-4" points="16.86 41.83 13.11 47.96 57.88 47.96 54.13 41.83 16.86 41.83"/><rect class="cls-5" x="13.11" y="47.96" width="44.77" height="3.26"/><path class="cls-7" d="M47.4,60v-3l-2.51-1.75a1.8,1.8,0,0,1-.6-.71L43.05,52a1.07,1.07,0,0,1,.55-1.44h0A1.06,1.06,0,0,1,45,51l.89,1.65h.68a.79.79,0,0,0,.79-.79v-6a.71.71,0,0,1,.71-.71h.87v-.13a.88.88,0,0,1,.88-.88h.35a.87.87,0,0,1,.88.88h.86a.62.62,0,0,1,.63.62V46h.36a1,1,0,0,1,1,1v7.39a2,2,0,0,1-.45,1.24L52.1,57.1v2.64Z"/><path class="cls-8" d="M49.63,44.19a.88.88,0,0,0-.74.87v.13H48a.71.71,0,0,0-.71.71v6a.79.79,0,0,1-.79.79h-.68L45,51a1.06,1.06,0,0,0-1.35-.49h0A1.07,1.07,0,0,0,43.05,52l1.24,2.66a1.8,1.8,0,0,0,.6.71l2.51,1.75v3l2.23-.14Z"/><rect class="cls-9" x="46.48" y="60.84" width="3.15" height="10.32"/><rect class="cls-10" x="46.01" y="64.43" width="10.32" height="3.15" transform="translate(-14.83 117.17) rotate(-90)"/><rect class="cls-11" x="45.8" y="59.14" width="3.84" height="3.75" transform="translate(-13.3 108.73) rotate(-90)"/><rect class="cls-12" x="49.55" y="59.14" width="3.84" height="3.75" transform="translate(-9.55 112.48) rotate(-90)"/><path class="cls-8" d="M24.21,60v-3l2.51-1.75a1.78,1.78,0,0,0,.59-.71L28.56,52A1.08,1.08,0,0,0,28,50.51h0a1.07,1.07,0,0,0-1.35.49c-.39.72-.88,1.65-.88,1.65h-.68a.79.79,0,0,1-.8-.79v-6a.71.71,0,0,0-.71-.71h-.87v-.13a.87.87,0,0,0-.87-.88h-.36a.87.87,0,0,0-.87.88h-.87a.62.62,0,0,0-.62.62V46h-.37a1,1,0,0,0-1,1v7.39a2,2,0,0,0,.45,1.24L19.5,57.1v2.64Z"/><path class="cls-7" d="M22,44.19a.88.88,0,0,1,.74.87v.13h.87a.71.71,0,0,1,.71.71v6a.79.79,0,0,0,.8.79h.68s.49-.93.88-1.65A1.07,1.07,0,0,1,28,50.51h0A1.08,1.08,0,0,1,28.56,52l-1.25,2.66a1.78,1.78,0,0,1-.59.71l-2.51,1.75v3L22,59.9Z"/><rect class="cls-10" x="18.39" y="64.43" width="10.32" height="3.15" transform="translate(-42.45 89.55) rotate(-90)"/><rect class="cls-9" x="18.87" y="60.84" width="3.15" height="10.32"/><rect class="cls-12" x="21.97" y="59.14" width="3.84" height="3.75" transform="translate(-37.12 84.9) rotate(-90)"/><rect class="cls-11" x="18.22" y="59.14" width="3.84" height="3.75" transform="translate(-40.87 81.15) rotate(-90)"/><path class="cls-13" d="M61.42,21.78H61v-.47h.4Zm-1.51,0H59.5v-.47h.41Zm-1.52,0H58v-.47h.4Zm-1.52,0h-.4v-.47h.4Zm-1.51,0H55v-.47h.41Zm-1.52,0h-.4v-.47h.4Zm-1.52,0h-.4v-.47h.4Zm-1.51,0h-.4v-.47h.4Zm-1.52,0h-.4v-.47h.4Zm-1.52,0h-.4v-.47h.4Zm-1.51,0h-.4v-.47h.4Zm-1.52,0h-.4v-.47h.4Zm-1.51,0h-.41v-.47h.41Zm-1.52,0h-.4v-.47h.4Zm-1.52,0h-.4v-.47h.4Zm-1.51,0h-.41v-.47h.41Zm-1.52,0h-.4v-.47h.4Zm-1.52,0h-.4v-.47h.4Zm-1.51,0h-.41v-.47h.41Zm-1.52,0h-.4v-.47h.4Zm-1.52,0h-.4v-.47h.4Zm-1.51,0h-.4v-.47h.4Zm32.81-.61h-.46v-.4h.46Zm0-1.52h-.46v-.4h.46Zm0-1.51h-.46v-.41h.46Zm0-1.52h-.46v-.4h.46Zm0-1.52h-.46v-.4h.46Zm0-1.51h-.46v-.4h.46Zm0-1.52h-.46v-.4h.46Zm4-.51H66V11.1h.4Zm-1.52,0h-.4V11.1h.4Zm-1.51,0h-.41V11.1h.41Z"/><path class="cls-13" d="M73.55,25.75h-.4v-.46h.4Zm-1.51,0h-.41v-.46H72Zm-1.52,0h-.4v-.46h.4Zm-1.52,0h-.4v-.46H69Zm-1.51,0h-.4v-.46h.4Zm-1.52,0h-.4v-.46H66Zm-1.51,0h-.41v-.46h.41Zm-1.52,0h-.4v-.46h.4Zm-1.52,0H61v-.46h.4Zm-1.51,0H59.5v-.46h.41Zm-1.52,0H58v-.46h.4Zm-1.52,0h-.4v-.46h.4Zm-1.51,0H55v-.46h.41Zm-1.52,0h-.4v-.46h.4Zm-1.52,0h-.4v-.46h.4Zm-1.51,0h-.4v-.46h.4Zm-1.52,0h-.4v-.46h.4Zm-1.52,0h-.4v-.46h.4Zm-1.51,0h-.4v-.46h.4Zm-1.52,0h-.4v-.46h.4Zm-1.51,0h-.41v-.46h.41Zm-1.52,0h-.4v-.46h.4Zm-1.52,0h-.4v-.46h.4Zm-1.51,0h-.41v-.46h.41Zm-1.52,0h-.4v-.46h.4Zm-1.52,0h-.4v-.46h.4Zm-1.51,0h-.41v-.46h.41Zm-1.52,0h-.4v-.46h.4Zm-1.52,0h-.4v-.46h.4Zm-1.51,0h-.4v-.46h.4Z"/><path class="cls-13" d="M78.85,37.53h-.4v-.46h.4Zm-1.51,0h-.41v-.46h.41Zm-1.52,0h-.4v-.46h.4Zm-1.52,0h-.4v-.46h.4Zm-1.51,0h-.41v-.46h.41Zm-1.52,0h-.4v-.46h.4Zm-1.52,0h-.4v-.46h.4Zm-.9-.61h-.47v-.4h.47Zm0-1.51h-.47V35h.47Zm0-1.52h-.47v-.4h.47Zm0-1.51h-.47V32h.47Zm0-1.52h-.47v-.4h.47Zm0-1.52h-.47V29h.23v-.23h.25Zm-1.36-.16h-.4v-.46h.4Zm-1.52,0h-.4v-.46H66Zm-1.51,0h-.41v-.46h.41Zm-1.52,0h-.4v-.46h.4Zm-1.52,0H61v-.46h.4Zm-1.51,0H59.5v-.46h.41Zm-1.52,0H58v-.46h.4Zm-1.52,0h-.4v-.46h.4Zm-1.51,0H55v-.46h.41Zm-1.52,0h-.4v-.46h.4Zm-1.52,0h-.4v-.46h.4Zm-1.51,0h-.4v-.46h.4Zm-1.52,0h-.4v-.46h.4Zm-1.52,0h-.4v-.46h.4Zm-1.51,0h-.4v-.46h.4Zm-1.52,0h-.4v-.46h.4Zm-1.51,0h-.41v-.46h.41Zm-1.52,0h-.4v-.46h.4Zm-1.52,0h-.4v-.46h.4Zm-1.51,0h-.41v-.46h.41Zm-1.52,0h-.4v-.46h.4Zm-1.52,0h-.4v-.46h.4Zm-1.51,0h-.41v-.46h.41Zm-1.52,0h-.4v-.46h.4Zm-1.52,0h-.4v-.46h.4Zm-1.51,0h-.4v-.46h.4Z"/><path class="cls-13" d="M66.09,49.62h-.41v-.46h.41Zm1.51,0h-.4v-.47h.4Zm1.52,0h-.4v-.47h.4Zm2.63,0v-.47h.4v.47Zm-1.11,0h-.41v-.47h.41Zm-5.09-1h-.47v-.4h.47Zm0-1.51h-.47v-.41h.47Zm0-1.52h-.47v-.4h.47Zm0-1.52h-.47v-.4h.47Zm0-1.51h-.47v-.4h.47Zm0-1.52h-.47v-.4h.47Zm0-1.52h-.47v-.4h.47Zm0-1.51h-.47v-.4h.47Zm0-1.52h-.47v-.4h.47Zm0-1.51h-.47v-.41h.47Zm0-1.52h-.47v-.4h.47Zm-1.09-.43h-.41v-.46h.41Zm-1.52,0h-.4v-.46h.4Zm-1.52,0H61v-.46h.4Zm-1.51,0H59.5v-.46h.41Zm-1.52,0H58v-.46h.4Zm-1.52,0h-.4v-.46h.4Zm-1.51,0H55v-.46h.41Zm-1.52,0h-.4v-.46h.4Zm-1.52,0h-.4v-.46h.4Zm-1.51,0h-.4v-.46h.4Zm-1.52,0h-.4v-.46h.4Zm-1.52,0h-.4v-.46h.4Zm-1.51,0h-.4v-.46h.4Zm-1.52,0h-.4v-.46h.4Zm-1.51,0h-.41v-.46h.41Zm-1.52,0h-.4v-.46h.4Zm-1.52,0h-.4v-.46h.4Zm-1.51,0h-.41v-.46h.41Zm-1.52,0h-.4v-.46h.4Zm-1.52,0h-.4v-.46h.4Zm-1.51,0h-.41v-.46h.41Zm-1.52,0h-.4v-.46h.4Zm-1.52,0h-.4v-.46h.4Zm-1.51,0h-.4v-.46h.4Z"/><path class="cls-8" d="M74.72,25.52a1.19,1.19,0,1,1-1.19-1.19A1.19,1.19,0,0,1,74.72,25.52Z"/><path class="cls-8" d="M68.66,11.33a1.19,1.19,0,1,1-1.19-1.19A1.19,1.19,0,0,1,68.66,11.33Z"/><path class="cls-8" d="M80.23,37.3A1.19,1.19,0,1,1,79,36.11,1.19,1.19,0,0,1,80.23,37.3Z"/><path class="cls-8" d="M74.42,49.38a1.19,1.19,0,1,1-1.18-1.18A1.18,1.18,0,0,1,74.42,49.38Z"/><path class="cls-13" d="M78.19,13.72H71V8.13h7.24Zm-6.93-.31h6.62v-5H71.26Z"/><path class="cls-13" d="M78.19,15.78H71V13.41h7.24Zm-6.93-.31h6.62V13.72H71.26Z"/><rect class="cls-13" x="74.01" y="14.15" width="2.28" height="0.31"/><rect class="cls-13" x="74.01" y="14.74" width="3.12" height="0.31"/><path class="cls-9" d="M75.56,10.13A1.09,1.09,0,1,1,74.47,9,1.09,1.09,0,0,1,75.56,10.13Z"/><path class="cls-9" d="M75.59,12.68H73.35v-.33a1.12,1.12,0,0,1,1.12-1.12h0a1.12,1.12,0,0,1,1.12,1.12Z"/><path class="cls-13" d="M72.61,15.29l-.08,0s-.65-.35-.65-.76a.45.45,0,0,1,.45-.48.58.58,0,0,1,.28.09.54.54,0,0,1,.27-.09.45.45,0,0,1,.45.48c0,.41-.65.76-.65.76Zm-.28-1c-.1,0-.14.09-.14.17s.24.33.42.44c.17-.11.41-.31.41-.44s0-.17-.14-.17a.26.26,0,0,0-.16.09l-.11.11-.12-.11A.26.26,0,0,0,72.33,14.32Z"/><polygon class="cls-13" points="77.44 52.42 76.01 48.23 79.24 47.12 79.34 47.42 76.4 48.43 77.63 52.02 79.52 51.37 79.62 51.67 77.44 52.42"/><polygon class="cls-13" points="77.84 53.59 77.34 52.12 79.52 51.37 79.62 51.67 77.73 52.31 78.03 53.19 82.25 51.75 82.19 51.57 82.48 51.47 82.64 51.95 77.84 53.59"/><polygon class="cls-9" points="79.29 48.52 79.23 48.48 78.78 49.95 78.23 49.65 77.84 50.88 79.29 50.38 79.29 48.52"/><path class="cls-13" d="M84.22,50.44H79.14V46h5.08Zm-4.77-.31h4.46v-3.8H79.45Z"/><polygon class="cls-13" points="82.94 51.67 79.14 51.67 79.14 50.13 84.22 50.13 84.22 51.12 83.91 51.12 83.91 50.44 79.45 50.44 79.45 51.37 82.94 51.37 82.94 51.67"/><polygon class="cls-9" points="80.02 49.11 80.78 48.08 81.21 48.55 82.11 47.29 83.39 49.11 80.02 49.11"/><path class="cls-13" d="M84.23,53.54H82.71V51.83a.87.87,0,0,1,.87-.87h.89v-.57l2.06,1.33-2.06,1.33v-.57h-.16a.08.08,0,0,0-.08.08ZM83,53.24h.9v-.68a.38.38,0,0,1,.39-.39h.47v.31L86,51.72,84.78,51v.31h-1.2a.56.56,0,0,0-.56.56Z"/><polygon class="cls-13" points="83.13 28.14 77.08 28.14 77.08 22.45 84.43 22.45 84.43 27.43 84.12 27.43 84.12 22.77 77.39 22.77 77.39 27.84 83.13 27.84 83.13 28.14"/><path class="cls-13" d="M84.42,24H77.08V22.46h7.34Zm-7-.31h6.72v-.89H77.39Z"/><polygon class="cls-9" points="79.86 24.63 81.96 25.84 79.86 27.05 79.86 24.63"/><path class="cls-13" d="M78.14,23.21a.16.16,0,0,1-.17.17.17.17,0,0,1-.17-.17A.18.18,0,0,1,78,23,.17.17,0,0,1,78.14,23.21Z"/><path class="cls-13" d="M78.7,23.21a.17.17,0,0,1-.17.17.17.17,0,0,1-.18-.17.18.18,0,0,1,.18-.17A.18.18,0,0,1,78.7,23.21Z"/><path class="cls-13" d="M79.25,23.21a.17.17,0,0,1-.17.17.16.16,0,0,1-.17-.17.17.17,0,0,1,.17-.17A.18.18,0,0,1,79.25,23.21Z"/><path class="cls-13" d="M83.05,29.09a.3.3,0,0,1-.14-.05.23.23,0,0,1-.08-.27l.21-.65-.56-.41a.25.25,0,0,1-.09-.27.25.25,0,0,1,.23-.17h.69l.22-.66a.25.25,0,0,1,.46,0l.21.65h.69a.24.24,0,0,1,.14.44l-.56.41.22.65a.25.25,0,0,1-.09.27.23.23,0,0,1-.28,0l-.56-.4-.56.4A.3.3,0,0,1,83.05,29.09Zm.71-.78a.24.24,0,0,1,.14.05l.43.31-.17-.51a.24.24,0,0,1,.09-.26l.43-.32h-.53a.24.24,0,0,1-.23-.16l-.16-.51-.17.51a.23.23,0,0,1-.23.16h-.53l.43.32a.22.22,0,0,1,.09.26l-.16.51.43-.31A.24.24,0,0,1,83.76,28.31Z"/><path class="cls-13" d="M65.17,60.39h-.38v-.46h.38Zm-1.49,0h-.4v-.46h.4Zm-1.52,0h-.4v-.46h.4Zm-.47-1h-.46V59h.46Zm0-1.52h-.46v-.4h.46Zm0-1.51h-.46v-.41h.46Zm0-1.52h-.46v-.4h.46Zm0-1.52h-.46v-.4h.46Zm0-1.51h-.46v-.41h.46Zm0-1.52h-.46v-.4h.46Zm0-1.52h-.46v-.4h.46Zm0-1.51h-.46v-.41h.46Zm0-1.52h-.46v-.4h.46Zm0-1.52h-.46v-.4h.46Zm0-1.51h-.46v-.4h.46Zm0-1.52h-.46v-.4h.46Zm-.85-.67h-.4V40h.4Zm-1.51,0h-.4V40h.4Zm-1.52,0h-.35V40h.46v.28h-.11Zm.11-1.63h-.46v-.4h.46Zm0-1.52h-.46v-.4h.46Zm-1.05-.46h-.4v-.46h.4Zm-1.51,0H55v-.46h.41Zm-1.52,0h-.4v-.46h.4Zm-1.52,0h-.4v-.46h.4Zm-1.51,0h-.4v-.46h.4Zm-1.52,0h-.4v-.46h.4Zm-1.52,0h-.4v-.46h.4Zm-1.51,0h-.4v-.46h.4Zm-1.52,0h-.4v-.46h.4Zm-1.51,0h-.41v-.46h.41Zm-1.52,0h-.4v-.46h.4Zm-1.52,0h-.4v-.46h.4Zm-1.51,0h-.41v-.46h.41Zm-1.52,0h-.4v-.46h.4Zm-1.52,0h-.4v-.46h.4Zm-1.51,0h-.41v-.46h.41Zm-1.52,0h-.4v-.46h.4Zm-1.52,0h-.4v-.46h.4Zm-1.51,0h-.4v-.46h.4Z"/><path class="cls-9" d="M75.47,59.47a1.25,1.25,0,0,1-2.49.21,1.59,1.59,0,0,0,.45-1.11.13.13,0,0,0,0-.06,1.22,1.22,0,0,1,.79-.29A1.25,1.25,0,0,1,75.47,59.47Z"/><path class="cls-9" d="M75.5,62v.37h-2V61.9a1.53,1.53,0,0,0-.19-.76,1.27,1.27,0,0,1,.93-.4A1.28,1.28,0,0,1,75.5,62Z"/><path class="cls-13" d="M71.79,60.36a1.8,1.8,0,1,1,1.8-1.79A1.8,1.8,0,0,1,71.79,60.36Zm0-3.28a1.49,1.49,0,1,0,1.49,1.49A1.49,1.49,0,0,0,71.79,57.08Z"/><path class="cls-13" d="M71.19,62.54H70V61.9a1.8,1.8,0,0,1,.18-.8l.28.14a1.49,1.49,0,0,0-.15.66v.34h.91Z"/><path class="cls-13" d="M73.63,62.54H71.79v-.3h1.53V61.9a1.4,1.4,0,0,0-.17-.68,1.5,1.5,0,0,0-1.36-.85,1.47,1.47,0,0,0-1,.4l0,0h-.07v-.15l-.1-.11a1.73,1.73,0,0,1,1.21-.48,1.79,1.79,0,0,1,1.63,1,1.63,1.63,0,0,1,.21.83Z"/><path class="cls-13" d="M69.92,64.4h-.14a2.07,2.07,0,0,1-1.39-.69,2,2,0,0,1,.2-2.87,2.08,2.08,0,0,1,1.47-.49,2,2,0,0,1,1.39.7,2,2,0,0,1-.2,2.86A2,2,0,0,1,69.92,64.4Zm0-3.74a1.66,1.66,0,0,0-1.12.42h0a1.69,1.69,0,0,0-.59,1.17,1.71,1.71,0,0,0,1.59,1.84,1.72,1.72,0,0,0,1.42-2.84A1.69,1.69,0,0,0,70,60.66Zm0,3.14h-.1a1.44,1.44,0,0,1-1.32-1.52,1.43,1.43,0,0,1,.49-1A1.35,1.35,0,0,1,70,61a1.42,1.42,0,0,1-.1,2.84Zm0-2.54a1.15,1.15,0,0,0-.73.27,1.14,1.14,0,0,0-.38.77,1.11,1.11,0,0,0,1,1.19,1.12,1.12,0,0,0,.81-.27,1.1,1.1,0,0,0,.11-1.57,1.07,1.07,0,0,0-.76-.39Z"/><rect class="cls-13" x="67.55" y="63.85" width="0.98" height="0.31" transform="translate(-25.32 60.81) rotate(-41.29)"/><path class="cls-13" d="M66.19,66.12h0a.49.49,0,0,1-.28-.86l1.23-1.07a.49.49,0,0,1,.7,0,.48.48,0,0,1,.12.35.51.51,0,0,1-.17.34L66.51,66A.47.47,0,0,1,66.19,66.12Zm1.24-1.74a.16.16,0,0,0-.12,0L66.07,65.5a.14.14,0,0,0-.06.12.16.16,0,0,0,0,.13.16.16,0,0,0,.13.06s.09,0,.13,0l1.24-1.07a.31.31,0,0,0,.06-.13.17.17,0,0,0,0-.13A.16.16,0,0,0,67.43,64.38Z"/><rect class="cls-13" x="67.72" y="58.22" width="0.31" height="1.88"/><rect class="cls-13" x="66.93" y="59" width="1.88" height="0.31"/><rect class="cls-13" x="73.59" y="63.56" width="0.31" height="1.39"/><rect class="cls-13" x="73.05" y="64.09" width="1.39" height="0.31"/><path class="cls-13" d="M73.63,62.39h-.31V61.9a1.4,1.4,0,0,0-.17-.68l.27-.16a1.69,1.69,0,0,1,.21.84Z"/><path class="cls-8" d="M66.35,60.16A1.19,1.19,0,1,1,65.17,59,1.18,1.18,0,0,1,66.35,60.16Z"/><path class="cls-13" d="M89.5,37l-.13,0,.09-.3h0l0,0c.14,0,.31-.28.31-.63s-.17-.63-.31-.63l0,0-.1-.3.14,0c.35,0,.62.41.62.93S89.85,37,89.5,37Z"/><path class="cls-13" d="M89.57,39.7l-1.08-1a4.29,4.29,0,0,0-3.2-1.44H85.2l-.41-.73h-.36l.18-.32-.18-.32h.36l.41-.73h.09a4.33,4.33,0,0,0,3.2-1.44l1.08-1ZM85.38,37a4.73,4.73,0,0,1,3.32,1.52l.56.49V33.5l-.56.5a4.73,4.73,0,0,1-3.32,1.52l-.42.73h0Z"/><path class="cls-13" d="M85.34,40.8H82.7V37.22h1.73ZM83,40.49H85l-.76-3H83Z"/><rect class="cls-9" x="81.98" y="34.9" width="3.51" height="2.72"/><path class="cls-14" d="M23.12,21.05a.49.49,0,0,1-.11.31.63.63,0,0,1-.33.19h0c.33,0,.5.2.5.47a.49.49,0,0,1-.22.43,1,1,0,0,1-.61.16l-.29,0-.29-.09v-.44a.82.82,0,0,0,.26.1l.25,0a.52.52,0,0,0,.25-.05.15.15,0,0,0,.08-.15.17.17,0,0,0,0-.13.23.23,0,0,0-.13-.06.9.9,0,0,0-.25,0h-.12v-.4h.13c.27,0,.4-.07.4-.21a.11.11,0,0,0-.06-.11.25.25,0,0,0-.16,0,.7.7,0,0,0-.39.13l-.22-.36a1,1,0,0,1,.32-.15,1.4,1.4,0,0,1,.38-.05.85.85,0,0,1,.48.12A.4.4,0,0,1,23.12,21.05Z"/><path class="cls-14" d="M24.22,21.3a.61.61,0,0,1,.3.08.52.52,0,0,1,.22.22.74.74,0,0,1,.07.34.6.6,0,0,1-.2.5.86.86,0,0,1-.6.18,1.14,1.14,0,0,1-.56-.11v-.43l.26.09.26,0a.39.39,0,0,0,.23-.06.24.24,0,0,0,.07-.19.22.22,0,0,0-.08-.18.38.38,0,0,0-.24-.06.86.86,0,0,0-.27.05l-.2-.1.07-1h1.13v.44H24l0,.26.15,0Z"/><path class="cls-14" d="M26,21.21a.7.7,0,0,1-.14.46.45.45,0,0,1-.38.16.47.47,0,0,1-.37-.17.69.69,0,0,1-.13-.45.7.7,0,0,1,.13-.46.44.44,0,0,1,.37-.16.49.49,0,0,1,.38.17A.69.69,0,0,1,26,21.21Zm-.62,0a.63.63,0,0,0,0,.23s0,.07.08.07a.08.08,0,0,0,.07-.07.63.63,0,0,0,0-.23.57.57,0,0,0,0-.22s0-.07-.07-.07-.06,0-.08.07A.61.61,0,0,0,25.42,21.21Zm1.6-.59-1.09,2h-.41l1.1-2ZM27.54,22a.7.7,0,0,1-.14.46.46.46,0,0,1-.38.17.45.45,0,0,1-.36-.17.72.72,0,0,1-.14-.46.67.67,0,0,1,.13-.45.44.44,0,0,1,.37-.16.46.46,0,0,1,.38.16A.69.69,0,0,1,27.54,22Zm-.61,0a1,1,0,0,0,0,.22c0,.05.05.07.08.07s.07,0,.08-.08a1.11,1.11,0,0,0,0-.42c0-.06,0-.08-.08-.08s-.06,0-.08.07A1,1,0,0,0,26.93,22Z"/><path class="cls-14" d="M22.94,26.21H22.4V25.16c0-.12,0-.24,0-.35a.74.74,0,0,1-.12.13l-.23.19-.28-.34.68-.56h.48Z"/><path class="cls-14" d="M24.22,24.91a.61.61,0,0,1,.3.08.54.54,0,0,1,.22.23.67.67,0,0,1,.07.33.63.63,0,0,1-.2.51.86.86,0,0,1-.6.18,1.27,1.27,0,0,1-.56-.11v-.44a1,1,0,0,0,.26.09,1.51,1.51,0,0,0,.26,0,.39.39,0,0,0,.23-.07.21.21,0,0,0,.07-.18.19.19,0,0,0-.08-.18.38.38,0,0,0-.24-.06.84.84,0,0,0-.27,0l-.2-.09.07-1.05h1.13v.45H24l0,.26.15,0Z"/><path class="cls-14" d="M26,24.82a.7.7,0,0,1-.14.46.46.46,0,0,1-.38.17.47.47,0,0,1-.37-.17.72.72,0,0,1-.13-.46.65.65,0,0,1,.13-.45.44.44,0,0,1,.37-.16.48.48,0,0,1,.38.16A.69.69,0,0,1,26,24.82Zm-.62,0a.57.57,0,0,0,0,.22c0,.05,0,.07.08.07s.06,0,.07-.07a.57.57,0,0,0,0-.22.67.67,0,0,0,0-.23.07.07,0,0,0-.07-.06s-.06,0-.08.07A.57.57,0,0,0,25.42,24.83Zm1.6-.6-1.09,2h-.41l1.1-2Zm.52,1.38a.7.7,0,0,1-.14.46.45.45,0,0,1-.38.16.45.45,0,0,1-.36-.17.69.69,0,0,1-.14-.45.7.7,0,0,1,.13-.46.51.51,0,0,1,.75,0A.69.69,0,0,1,27.54,25.61Zm-.61,0a1.13,1.13,0,0,0,0,.23s.05.07.08.07.07,0,.08-.08a1.18,1.18,0,0,0,0-.22,1.06,1.06,0,0,0,0-.21s0-.08-.08-.08-.06,0-.08.07A1.09,1.09,0,0,0,26.93,25.61Z"/><path class="cls-14" d="M23.19,29.94H21.75v-.35l.49-.48.27-.3a.41.41,0,0,0,.08-.14.2.2,0,0,0,0-.11.17.17,0,0,0-.05-.13.2.2,0,0,0-.14,0,.45.45,0,0,0-.19.05,2,2,0,0,0-.22.16l-.29-.34a1.66,1.66,0,0,1,.26-.2.85.85,0,0,1,.22-.09,1.27,1.27,0,0,1,.28,0,.74.74,0,0,1,.34.07.57.57,0,0,1,.24.19.54.54,0,0,1,.08.28.78.78,0,0,1,0,.22.82.82,0,0,1-.09.19,1.27,1.27,0,0,1-.16.2l-.43.4h.75Z"/><path class="cls-14" d="M24.22,28.65a.61.61,0,0,1,.3.08.52.52,0,0,1,.22.22.74.74,0,0,1,.07.34.6.6,0,0,1-.2.5A.86.86,0,0,1,24,30a1.14,1.14,0,0,1-.56-.11v-.43l.26.09.26,0a.39.39,0,0,0,.23-.06.24.24,0,0,0,.07-.19.19.19,0,0,0-.08-.17.33.33,0,0,0-.24-.07.86.86,0,0,0-.27.05l-.2-.1.07-1h1.13v.44H24l0,.26.15,0Z"/><path class="cls-14" d="M26,28.56a.7.7,0,0,1-.14.46.45.45,0,0,1-.38.16.47.47,0,0,1-.37-.17.69.69,0,0,1-.13-.45.7.7,0,0,1,.13-.46.44.44,0,0,1,.37-.16.49.49,0,0,1,.38.17A.69.69,0,0,1,26,28.56Zm-.62,0a.63.63,0,0,0,0,.23s0,.07.08.07a.08.08,0,0,0,.07-.07.63.63,0,0,0,0-.23.61.61,0,0,0,0-.22c0-.05,0-.07-.07-.07s-.06,0-.08.07A.61.61,0,0,0,25.42,28.56ZM27,28l-1.09,2h-.41l1.1-2Zm.52,1.37a.7.7,0,0,1-.14.46A.46.46,0,0,1,27,30a.45.45,0,0,1-.36-.17.72.72,0,0,1-.14-.46.67.67,0,0,1,.13-.45.44.44,0,0,1,.37-.16.46.46,0,0,1,.38.16A.69.69,0,0,1,27.54,29.34Zm-.61,0a1,1,0,0,0,0,.22c0,.05.05.07.08.07s.07,0,.08-.08a1.11,1.11,0,0,0,0-.42c0-.06,0-.08-.08-.08s-.06,0-.08.07A1,1,0,0,0,26.93,29.35Z"/><path class="cls-14" d="M22.94,33.62H22.4v-1c0-.12,0-.24,0-.34a1.36,1.36,0,0,1-.12.12l-.23.19-.28-.34.68-.56h.48Z"/><path class="cls-14" d="M24.84,32.63a1.31,1.31,0,0,1-.17.77.64.64,0,0,1-.54.25.6.6,0,0,1-.53-.26,1.31,1.31,0,0,1-.18-.76,1.42,1.42,0,0,1,.17-.77.63.63,0,0,1,.54-.24.6.6,0,0,1,.53.25A1.33,1.33,0,0,1,24.84,32.63Zm-.89,0a1.7,1.7,0,0,0,0,.47c0,.08.07.12.14.12s.11,0,.14-.13a1.66,1.66,0,0,0,0-.46,1.71,1.71,0,0,0,0-.46c0-.08-.07-.13-.14-.13s-.11.05-.14.13A1.62,1.62,0,0,0,24,32.63Z"/><path class="cls-14" d="M26,32.23a.7.7,0,0,1-.14.46.46.46,0,0,1-.38.17.47.47,0,0,1-.37-.17.72.72,0,0,1-.13-.46.67.67,0,0,1,.13-.45.44.44,0,0,1,.37-.16.48.48,0,0,1,.38.16A.69.69,0,0,1,26,32.23Zm-.62,0a.57.57,0,0,0,0,.22s0,.07.08.07.06,0,.07-.07a.57.57,0,0,0,0-.22.67.67,0,0,0,0-.23.07.07,0,0,0-.07-.06s-.06,0-.08.07A.57.57,0,0,0,25.42,32.24Zm1.6-.6-1.09,2h-.41l1.1-2ZM27.54,33a.7.7,0,0,1-.14.46.45.45,0,0,1-.38.16.45.45,0,0,1-.36-.17.69.69,0,0,1-.14-.45.7.7,0,0,1,.13-.46.51.51,0,0,1,.75,0A.69.69,0,0,1,27.54,33Zm-.61,0a1.13,1.13,0,0,0,0,.23s.05.07.08.07.07,0,.08-.08a1.18,1.18,0,0,0,0-.22,1.06,1.06,0,0,0,0-.21c0-.05,0-.08-.08-.08s-.06,0-.08.07A1.09,1.09,0,0,0,26.93,33Z"/><path class="cls-14" d="M22.94,37.29H22.4v-1c0-.13,0-.24,0-.35l-.12.13-.23.18-.28-.34.68-.55h.48Z"/><path class="cls-14" d="M24.22,36a.61.61,0,0,1,.3.08.52.52,0,0,1,.22.22.74.74,0,0,1,.07.34.6.6,0,0,1-.2.5.86.86,0,0,1-.6.18,1.28,1.28,0,0,1-.56-.1v-.44l.26.09.26,0a.39.39,0,0,0,.23-.06.22.22,0,0,0,.07-.19.19.19,0,0,0-.08-.17.33.33,0,0,0-.24-.07.86.86,0,0,0-.27.05l-.2-.1.07-1h1.13v.44H24L24,36l.15,0Z"/><path class="cls-14" d="M26,35.91a.7.7,0,0,1-.14.46.45.45,0,0,1-.38.16.44.44,0,0,1-.37-.17.69.69,0,0,1-.13-.45.7.7,0,0,1,.13-.46.44.44,0,0,1,.37-.16.49.49,0,0,1,.38.17A.69.69,0,0,1,26,35.91Zm-.62,0a.63.63,0,0,0,0,.23s0,.07.08.07.06,0,.07-.07a.63.63,0,0,0,0-.23.61.61,0,0,0,0-.22s0-.07-.07-.07-.06,0-.08.07A.61.61,0,0,0,25.42,35.91Zm1.6-.59-1.09,2h-.41l1.1-2Zm.52,1.38a.67.67,0,0,1-.14.45.46.46,0,0,1-.38.17.45.45,0,0,1-.36-.17.69.69,0,0,1-.14-.45.68.68,0,0,1,.13-.46.44.44,0,0,1,.37-.16.46.46,0,0,1,.38.16A.72.72,0,0,1,27.54,36.7Zm-.61,0a1,1,0,0,0,0,.22S27,37,27,37s.07,0,.08-.08a1.11,1.11,0,0,0,0-.42c0-.06,0-.08-.08-.08s-.06,0-.08.07A1,1,0,0,0,26.93,36.7Z"/><rect class="cls-9" x="31.94" y="13.3" width="15.52" height="25.51"/><rect class="cls-10" x="34.1" y="21.6" width="11.18" height="3.56" transform="translate(79.37 46.77) rotate(180)"/><rect class="cls-10" x="34.1" y="15.63" width="11.18" height="4.37" transform="translate(79.37 35.62) rotate(180)"/><rect class="cls-10" x="34.1" y="26.5" width="11.18" height="1.78" transform="translate(79.37 54.79) rotate(180)"/><rect class="cls-10" x="34.1" y="29.94" width="11.18" height="6" transform="translate(79.37 65.89) rotate(180)"/></g></g></g></svg>